<mxfile host="app.diagrams.net" modified="2021-01-10T12:50:19.650Z" agent="5.0 (Windows NT 10.0; Win64; x64) AppleWebKit/537.36 (KHTML, like Gecko) Chrome/87.0.4280.88 Safari/537.36" etag="Ii0MMra0LjIemQDntu7N" version="14.1.8" type="github">
  <diagram id="pWRSaCMweluWEHG15Mob" name="第 1 页">
    <mxGraphModel dx="736" dy="312" grid="1" gridSize="10" guides="1" tooltips="1" connect="1" arrows="1" fold="1" page="1" pageScale="1" pageWidth="827" pageHeight="1169" background="none" math="0" shadow="0">
      <root>
        <mxCell id="0" />
        <mxCell id="1" parent="0" />
        <mxCell id="MHLeArbjAZv4dwWYcliC-340" value="" style="group;labelBorderColor=#000000;" vertex="1" connectable="0" parent="1">
          <mxGeometry x="110" y="60" width="260" height="290" as="geometry" />
        </mxCell>
        <mxCell id="MHLeArbjAZv4dwWYcliC-212" value="" style="group" vertex="1" connectable="0" parent="MHLeArbjAZv4dwWYcliC-340">
          <mxGeometry x="44.11552346570397" y="89.08223861795935" width="215.884476534296" height="188.61667395048715" as="geometry" />
        </mxCell>
        <mxCell id="MHLeArbjAZv4dwWYcliC-199" value="" style="rhombus;whiteSpace=wrap;html=1;fillColor=#60a917;strokeColor=#2D7600;fontColor=#ffffff;" vertex="1" parent="MHLeArbjAZv4dwWYcliC-212">
          <mxGeometry y="98.4086994524281" width="46.93140794223825" height="41.00362477184504" as="geometry" />
        </mxCell>
        <mxCell id="MHLeArbjAZv4dwWYcliC-202" value="" style="group" vertex="1" connectable="0" parent="MHLeArbjAZv4dwWYcliC-212">
          <mxGeometry x="18.772563176895307" width="197.1119133574007" height="188.61667395048715" as="geometry" />
        </mxCell>
        <mxCell id="MHLeArbjAZv4dwWYcliC-192" value="" style="rhombus;whiteSpace=wrap;html=1;fillColor=#60a917;strokeColor=#2D7600;fontColor=#ffffff;" vertex="1" parent="MHLeArbjAZv4dwWYcliC-202">
          <mxGeometry x="18.77256317689531" y="65.60579963495206" width="46.93140794223826" height="41.00362477184504" as="geometry" />
        </mxCell>
        <mxCell id="MHLeArbjAZv4dwWYcliC-194" value="" style="rhombus;whiteSpace=wrap;html=1;" vertex="1" parent="MHLeArbjAZv4dwWYcliC-202">
          <mxGeometry x="37.54512635379062" y="49.20434972621405" width="46.93140794223826" height="41.00362477184504" as="geometry" />
        </mxCell>
        <mxCell id="MHLeArbjAZv4dwWYcliC-195" value="" style="rhombus;whiteSpace=wrap;html=1;fillColor=#60a917;strokeColor=#2D7600;fontColor=#ffffff;" vertex="1" parent="MHLeArbjAZv4dwWYcliC-202">
          <mxGeometry x="56.31768953068592" y="32.80289981747603" width="46.93140794223826" height="41.00362477184504" as="geometry" />
        </mxCell>
        <mxCell id="MHLeArbjAZv4dwWYcliC-196" value="" style="rhombus;whiteSpace=wrap;html=1;" vertex="1" parent="MHLeArbjAZv4dwWYcliC-202">
          <mxGeometry x="75.09025270758124" y="16.401449908738016" width="46.93140794223826" height="41.00362477184504" as="geometry" />
        </mxCell>
        <mxCell id="MHLeArbjAZv4dwWYcliC-197" value="" style="rhombus;whiteSpace=wrap;html=1;" vertex="1" parent="MHLeArbjAZv4dwWYcliC-202">
          <mxGeometry y="82.00724954369008" width="46.93140794223826" height="41.00362477184504" as="geometry" />
        </mxCell>
        <mxCell id="MHLeArbjAZv4dwWYcliC-198" value="" style="rhombus;whiteSpace=wrap;html=1;" vertex="1" parent="MHLeArbjAZv4dwWYcliC-202">
          <mxGeometry x="93.86281588447652" width="46.93140794223826" height="41.00362477184504" as="geometry" />
        </mxCell>
        <mxCell id="MHLeArbjAZv4dwWYcliC-220" value="" style="group" vertex="1" connectable="0" parent="MHLeArbjAZv4dwWYcliC-202">
          <mxGeometry y="16.401449908738016" width="197.1119133574007" height="172.21522404174917" as="geometry" />
        </mxCell>
        <mxCell id="MHLeArbjAZv4dwWYcliC-221" value="" style="rhombus;whiteSpace=wrap;html=1;" vertex="1" parent="MHLeArbjAZv4dwWYcliC-220">
          <mxGeometry y="98.4086994524281" width="46.93140794223826" height="41.00362477184504" as="geometry" />
        </mxCell>
        <mxCell id="MHLeArbjAZv4dwWYcliC-222" value="" style="group" vertex="1" connectable="0" parent="MHLeArbjAZv4dwWYcliC-220">
          <mxGeometry x="18.77256317689531" width="178.33935018050548" height="172.21522404174917" as="geometry" />
        </mxCell>
        <mxCell id="MHLeArbjAZv4dwWYcliC-223" value="" style="rhombus;whiteSpace=wrap;html=1;" vertex="1" parent="MHLeArbjAZv4dwWYcliC-222">
          <mxGeometry x="18.772563176895318" y="65.60579963495206" width="46.931407942238295" height="41.00362477184504" as="geometry" />
        </mxCell>
        <mxCell id="MHLeArbjAZv4dwWYcliC-224" value="" style="rhombus;whiteSpace=wrap;html=1;" vertex="1" parent="MHLeArbjAZv4dwWYcliC-222">
          <mxGeometry x="37.545126353790636" y="49.20434972621405" width="46.931407942238295" height="41.00362477184504" as="geometry" />
        </mxCell>
        <mxCell id="MHLeArbjAZv4dwWYcliC-225" value="" style="rhombus;whiteSpace=wrap;html=1;" vertex="1" parent="MHLeArbjAZv4dwWYcliC-222">
          <mxGeometry x="56.31768953068594" y="32.80289981747603" width="46.931407942238295" height="41.00362477184504" as="geometry" />
        </mxCell>
        <mxCell id="MHLeArbjAZv4dwWYcliC-226" value="" style="rhombus;whiteSpace=wrap;html=1;" vertex="1" parent="MHLeArbjAZv4dwWYcliC-222">
          <mxGeometry x="75.09025270758127" y="16.401449908738016" width="46.931407942238295" height="41.00362477184504" as="geometry" />
        </mxCell>
        <mxCell id="MHLeArbjAZv4dwWYcliC-227" value="" style="rhombus;whiteSpace=wrap;html=1;" vertex="1" parent="MHLeArbjAZv4dwWYcliC-222">
          <mxGeometry y="82.00724954369008" width="46.931407942238295" height="41.00362477184504" as="geometry" />
        </mxCell>
        <mxCell id="MHLeArbjAZv4dwWYcliC-228" value="" style="rhombus;whiteSpace=wrap;html=1;" vertex="1" parent="MHLeArbjAZv4dwWYcliC-222">
          <mxGeometry x="93.86281588447659" width="46.931407942238295" height="41.00362477184504" as="geometry" />
        </mxCell>
        <mxCell id="MHLeArbjAZv4dwWYcliC-229" value="" style="group" vertex="1" connectable="0" parent="MHLeArbjAZv4dwWYcliC-222">
          <mxGeometry y="16.401449908738016" width="178.33935018050548" height="155.81377413301115" as="geometry" />
        </mxCell>
        <mxCell id="MHLeArbjAZv4dwWYcliC-230" value="" style="rhombus;whiteSpace=wrap;html=1;fillColor=#60a917;strokeColor=#2D7600;fontColor=#ffffff;" vertex="1" parent="MHLeArbjAZv4dwWYcliC-229">
          <mxGeometry y="98.40869945242808" width="46.931407942238295" height="41.00362477184503" as="geometry" />
        </mxCell>
        <mxCell id="MHLeArbjAZv4dwWYcliC-231" value="" style="group" vertex="1" connectable="0" parent="MHLeArbjAZv4dwWYcliC-229">
          <mxGeometry x="18.772563176895318" width="159.56678700361016" height="155.81377413301115" as="geometry" />
        </mxCell>
        <mxCell id="MHLeArbjAZv4dwWYcliC-232" value="" style="rhombus;whiteSpace=wrap;html=1;fillColor=#60a917;strokeColor=#2D7600;fontColor=#ffffff;" vertex="1" parent="MHLeArbjAZv4dwWYcliC-231">
          <mxGeometry x="18.772563176895314" y="65.60579963495206" width="46.93140794223829" height="41.00362477184503" as="geometry" />
        </mxCell>
        <mxCell id="MHLeArbjAZv4dwWYcliC-233" value="" style="rhombus;whiteSpace=wrap;html=1;" vertex="1" parent="MHLeArbjAZv4dwWYcliC-231">
          <mxGeometry x="37.54512635379063" y="49.20434972621404" width="46.93140794223829" height="41.00362477184503" as="geometry" />
        </mxCell>
        <mxCell id="MHLeArbjAZv4dwWYcliC-234" value="" style="rhombus;whiteSpace=wrap;html=1;fillColor=#60a917;strokeColor=#2D7600;fontColor=#ffffff;" vertex="1" parent="MHLeArbjAZv4dwWYcliC-231">
          <mxGeometry x="56.31768953068593" y="32.80289981747603" width="46.93140794223829" height="41.00362477184503" as="geometry" />
        </mxCell>
        <mxCell id="MHLeArbjAZv4dwWYcliC-235" value="" style="rhombus;whiteSpace=wrap;html=1;" vertex="1" parent="MHLeArbjAZv4dwWYcliC-231">
          <mxGeometry x="75.09025270758126" y="16.401449908738016" width="46.93140794223829" height="41.00362477184503" as="geometry" />
        </mxCell>
        <mxCell id="MHLeArbjAZv4dwWYcliC-236" value="" style="rhombus;whiteSpace=wrap;html=1;" vertex="1" parent="MHLeArbjAZv4dwWYcliC-231">
          <mxGeometry y="82.00724954369007" width="46.93140794223829" height="41.00362477184503" as="geometry" />
        </mxCell>
        <mxCell id="MHLeArbjAZv4dwWYcliC-237" value="" style="rhombus;whiteSpace=wrap;html=1;" vertex="1" parent="MHLeArbjAZv4dwWYcliC-231">
          <mxGeometry x="93.86281588447657" width="46.93140794223829" height="41.00362477184503" as="geometry" />
        </mxCell>
        <mxCell id="MHLeArbjAZv4dwWYcliC-238" value="" style="group" vertex="1" connectable="0" parent="MHLeArbjAZv4dwWYcliC-231">
          <mxGeometry y="16.401449908738016" width="159.56678700361016" height="139.41232422427314" as="geometry" />
        </mxCell>
        <mxCell id="MHLeArbjAZv4dwWYcliC-239" value="" style="rhombus;whiteSpace=wrap;html=1;" vertex="1" parent="MHLeArbjAZv4dwWYcliC-238">
          <mxGeometry y="98.40869945242811" width="46.93140794223829" height="41.00362477184505" as="geometry" />
        </mxCell>
        <mxCell id="MHLeArbjAZv4dwWYcliC-240" value="" style="group" vertex="1" connectable="0" parent="MHLeArbjAZv4dwWYcliC-238">
          <mxGeometry x="18.772563176895314" width="140.7942238267148" height="123.01087431553515" as="geometry" />
        </mxCell>
        <mxCell id="MHLeArbjAZv4dwWYcliC-241" value="" style="rhombus;whiteSpace=wrap;html=1;" vertex="1" parent="MHLeArbjAZv4dwWYcliC-240">
          <mxGeometry x="18.772563176895314" y="65.60579963495208" width="46.93140794223829" height="41.00362477184505" as="geometry" />
        </mxCell>
        <mxCell id="MHLeArbjAZv4dwWYcliC-242" value="" style="rhombus;whiteSpace=wrap;html=1;" vertex="1" parent="MHLeArbjAZv4dwWYcliC-240">
          <mxGeometry x="37.54512635379063" y="49.204349726214055" width="46.93140794223829" height="41.00362477184505" as="geometry" />
        </mxCell>
        <mxCell id="MHLeArbjAZv4dwWYcliC-243" value="" style="rhombus;whiteSpace=wrap;html=1;" vertex="1" parent="MHLeArbjAZv4dwWYcliC-240">
          <mxGeometry x="56.31768953068593" y="32.80289981747604" width="46.93140794223829" height="41.00362477184505" as="geometry" />
        </mxCell>
        <mxCell id="MHLeArbjAZv4dwWYcliC-244" value="" style="rhombus;whiteSpace=wrap;html=1;" vertex="1" parent="MHLeArbjAZv4dwWYcliC-240">
          <mxGeometry x="75.09025270758126" y="16.40144990873802" width="46.93140794223829" height="41.00362477184505" as="geometry" />
        </mxCell>
        <mxCell id="MHLeArbjAZv4dwWYcliC-245" value="" style="rhombus;whiteSpace=wrap;html=1;" vertex="1" parent="MHLeArbjAZv4dwWYcliC-240">
          <mxGeometry y="82.0072495436901" width="46.93140794223829" height="41.00362477184505" as="geometry" />
        </mxCell>
        <mxCell id="MHLeArbjAZv4dwWYcliC-246" value="" style="rhombus;whiteSpace=wrap;html=1;" vertex="1" parent="MHLeArbjAZv4dwWYcliC-240">
          <mxGeometry x="93.86281588447657" width="46.93140794223829" height="41.00362477184505" as="geometry" />
        </mxCell>
        <mxCell id="MHLeArbjAZv4dwWYcliC-249" value="" style="group" vertex="1" connectable="0" parent="MHLeArbjAZv4dwWYcliC-231">
          <mxGeometry x="18.772563176895314" y="32.80289981747603" width="159.56678700361016" height="139.41232422427314" as="geometry" />
        </mxCell>
        <mxCell id="MHLeArbjAZv4dwWYcliC-250" value="" style="rhombus;whiteSpace=wrap;html=1;fillColor=#60a917;strokeColor=#2D7600;fontColor=#ffffff;" vertex="1" parent="MHLeArbjAZv4dwWYcliC-249">
          <mxGeometry y="98.40869945242811" width="46.93140794223829" height="41.00362477184505" as="geometry" />
        </mxCell>
        <mxCell id="MHLeArbjAZv4dwWYcliC-251" value="" style="group" vertex="1" connectable="0" parent="MHLeArbjAZv4dwWYcliC-249">
          <mxGeometry x="18.772563176895314" width="140.7942238267148" height="123.01087431553515" as="geometry" />
        </mxCell>
        <mxCell id="MHLeArbjAZv4dwWYcliC-252" value="" style="rhombus;whiteSpace=wrap;html=1;fillColor=#60a917;strokeColor=#2D7600;fontColor=#ffffff;" vertex="1" parent="MHLeArbjAZv4dwWYcliC-251">
          <mxGeometry x="18.772563176895314" y="65.60579963495208" width="46.93140794223829" height="41.00362477184505" as="geometry" />
        </mxCell>
        <mxCell id="MHLeArbjAZv4dwWYcliC-253" value="" style="rhombus;whiteSpace=wrap;html=1;" vertex="1" parent="MHLeArbjAZv4dwWYcliC-251">
          <mxGeometry x="37.54512635379063" y="49.204349726214055" width="46.93140794223829" height="41.00362477184505" as="geometry" />
        </mxCell>
        <mxCell id="MHLeArbjAZv4dwWYcliC-254" value="" style="rhombus;whiteSpace=wrap;html=1;fillColor=#60a917;strokeColor=#2D7600;fontColor=#ffffff;" vertex="1" parent="MHLeArbjAZv4dwWYcliC-251">
          <mxGeometry x="56.31768953068593" y="32.80289981747604" width="46.93140794223829" height="41.00362477184505" as="geometry" />
        </mxCell>
        <mxCell id="MHLeArbjAZv4dwWYcliC-255" value="" style="rhombus;whiteSpace=wrap;html=1;" vertex="1" parent="MHLeArbjAZv4dwWYcliC-251">
          <mxGeometry x="75.09025270758126" y="16.40144990873802" width="46.93140794223829" height="41.00362477184505" as="geometry" />
        </mxCell>
        <mxCell id="MHLeArbjAZv4dwWYcliC-256" value="" style="rhombus;whiteSpace=wrap;html=1;" vertex="1" parent="MHLeArbjAZv4dwWYcliC-251">
          <mxGeometry y="82.0072495436901" width="46.93140794223829" height="41.00362477184505" as="geometry" />
        </mxCell>
        <mxCell id="MHLeArbjAZv4dwWYcliC-257" value="" style="rhombus;whiteSpace=wrap;html=1;" vertex="1" parent="MHLeArbjAZv4dwWYcliC-251">
          <mxGeometry x="93.86281588447657" width="46.93140794223829" height="41.00362477184505" as="geometry" />
        </mxCell>
        <mxCell id="MHLeArbjAZv4dwWYcliC-258" value="" style="group" vertex="1" connectable="0" parent="MHLeArbjAZv4dwWYcliC-231">
          <mxGeometry x="37.54512635379063" y="49.20434972621404" width="159.56678700361016" height="139.41232422427314" as="geometry" />
        </mxCell>
        <mxCell id="MHLeArbjAZv4dwWYcliC-259" value="" style="rhombus;whiteSpace=wrap;html=1;" vertex="1" parent="MHLeArbjAZv4dwWYcliC-258">
          <mxGeometry y="98.40869945242811" width="46.93140794223829" height="41.00362477184505" as="geometry" />
        </mxCell>
        <mxCell id="MHLeArbjAZv4dwWYcliC-260" value="" style="group" vertex="1" connectable="0" parent="MHLeArbjAZv4dwWYcliC-258">
          <mxGeometry x="18.772563176895314" width="140.7942238267148" height="123.01087431553515" as="geometry" />
        </mxCell>
        <mxCell id="MHLeArbjAZv4dwWYcliC-261" value="" style="rhombus;whiteSpace=wrap;html=1;" vertex="1" parent="MHLeArbjAZv4dwWYcliC-260">
          <mxGeometry x="18.772563176895314" y="65.60579963495208" width="46.93140794223829" height="41.00362477184505" as="geometry" />
        </mxCell>
        <mxCell id="MHLeArbjAZv4dwWYcliC-262" value="" style="rhombus;whiteSpace=wrap;html=1;" vertex="1" parent="MHLeArbjAZv4dwWYcliC-260">
          <mxGeometry x="37.54512635379063" y="49.204349726214055" width="46.93140794223829" height="41.00362477184505" as="geometry" />
        </mxCell>
        <mxCell id="MHLeArbjAZv4dwWYcliC-263" value="" style="rhombus;whiteSpace=wrap;html=1;" vertex="1" parent="MHLeArbjAZv4dwWYcliC-260">
          <mxGeometry x="56.31768953068593" y="32.80289981747604" width="46.93140794223829" height="41.00362477184505" as="geometry" />
        </mxCell>
        <mxCell id="MHLeArbjAZv4dwWYcliC-264" value="" style="rhombus;whiteSpace=wrap;html=1;" vertex="1" parent="MHLeArbjAZv4dwWYcliC-260">
          <mxGeometry x="75.09025270758126" y="16.40144990873802" width="46.93140794223829" height="41.00362477184505" as="geometry" />
        </mxCell>
        <mxCell id="MHLeArbjAZv4dwWYcliC-265" value="" style="rhombus;whiteSpace=wrap;html=1;" vertex="1" parent="MHLeArbjAZv4dwWYcliC-260">
          <mxGeometry y="82.0072495436901" width="46.93140794223829" height="41.00362477184505" as="geometry" />
        </mxCell>
        <mxCell id="MHLeArbjAZv4dwWYcliC-266" value="" style="rhombus;whiteSpace=wrap;html=1;" vertex="1" parent="MHLeArbjAZv4dwWYcliC-260">
          <mxGeometry x="93.86281588447657" width="46.93140794223829" height="41.00362477184505" as="geometry" />
        </mxCell>
        <mxCell id="MHLeArbjAZv4dwWYcliC-267" value="" style="group" vertex="1" connectable="0" parent="MHLeArbjAZv4dwWYcliC-231">
          <mxGeometry x="56.31768953068593" y="65.60579963495206" width="159.56678700361016" height="139.41232422427314" as="geometry" />
        </mxCell>
        <mxCell id="MHLeArbjAZv4dwWYcliC-268" value="" style="rhombus;whiteSpace=wrap;html=1;" vertex="1" parent="MHLeArbjAZv4dwWYcliC-267">
          <mxGeometry y="98.40869945242811" width="46.93140794223829" height="41.00362477184505" as="geometry" />
        </mxCell>
        <mxCell id="MHLeArbjAZv4dwWYcliC-269" value="" style="group" vertex="1" connectable="0" parent="MHLeArbjAZv4dwWYcliC-267">
          <mxGeometry x="18.772563176895314" width="140.7942238267148" height="123.01087431553515" as="geometry" />
        </mxCell>
        <mxCell id="MHLeArbjAZv4dwWYcliC-270" value="" style="rhombus;whiteSpace=wrap;html=1;" vertex="1" parent="MHLeArbjAZv4dwWYcliC-269">
          <mxGeometry x="18.772563176895314" y="65.60579963495208" width="46.93140794223829" height="41.00362477184505" as="geometry" />
        </mxCell>
        <mxCell id="MHLeArbjAZv4dwWYcliC-271" value="" style="rhombus;whiteSpace=wrap;html=1;" vertex="1" parent="MHLeArbjAZv4dwWYcliC-269">
          <mxGeometry x="37.54512635379063" y="49.204349726214055" width="46.93140794223829" height="41.00362477184505" as="geometry" />
        </mxCell>
        <mxCell id="MHLeArbjAZv4dwWYcliC-272" value="" style="rhombus;whiteSpace=wrap;html=1;" vertex="1" parent="MHLeArbjAZv4dwWYcliC-269">
          <mxGeometry x="56.31768953068593" y="32.80289981747604" width="46.93140794223829" height="41.00362477184505" as="geometry" />
        </mxCell>
        <mxCell id="MHLeArbjAZv4dwWYcliC-273" value="" style="rhombus;whiteSpace=wrap;html=1;" vertex="1" parent="MHLeArbjAZv4dwWYcliC-269">
          <mxGeometry x="75.09025270758126" y="16.40144990873802" width="46.93140794223829" height="41.00362477184505" as="geometry" />
        </mxCell>
        <mxCell id="MHLeArbjAZv4dwWYcliC-274" value="" style="rhombus;whiteSpace=wrap;html=1;" vertex="1" parent="MHLeArbjAZv4dwWYcliC-269">
          <mxGeometry y="82.0072495436901" width="46.93140794223829" height="41.00362477184505" as="geometry" />
        </mxCell>
        <mxCell id="MHLeArbjAZv4dwWYcliC-275" value="" style="rhombus;whiteSpace=wrap;html=1;" vertex="1" parent="MHLeArbjAZv4dwWYcliC-269">
          <mxGeometry x="93.86281588447657" width="46.93140794223829" height="41.00362477184505" as="geometry" />
        </mxCell>
        <mxCell id="MHLeArbjAZv4dwWYcliC-296" value="" style="group" vertex="1" connectable="0" parent="MHLeArbjAZv4dwWYcliC-340">
          <mxGeometry y="40.69796138718219" width="198.0505415162455" height="92.66819198436977" as="geometry" />
        </mxCell>
        <mxCell id="MHLeArbjAZv4dwWYcliC-292" value="" style="group" vertex="1" connectable="0" parent="MHLeArbjAZv4dwWYcliC-296">
          <mxGeometry x="93.86281588447655" y="-38.543407285534336" width="104.18772563176897" height="87.12450191521631" as="geometry" />
        </mxCell>
        <mxCell id="MHLeArbjAZv4dwWYcliC-291" value="" style="group" vertex="1" connectable="0" parent="MHLeArbjAZv4dwWYcliC-292">
          <mxGeometry x="21.588447653429604" y="17.221522404174912" width="82.59927797833936" height="69.90297951104141" as="geometry" />
        </mxCell>
        <mxCell id="MHLeArbjAZv4dwWYcliC-278" value="" style="rhombus;whiteSpace=wrap;html=1;rounded=0;" vertex="1" parent="MHLeArbjAZv4dwWYcliC-291">
          <mxGeometry x="37.545126353790614" width="45.05415162454873" height="38.1288979151135" as="geometry" />
        </mxCell>
        <mxCell id="MHLeArbjAZv4dwWYcliC-280" value="" style="rhombus;whiteSpace=wrap;html=1;rounded=0;" vertex="1" parent="MHLeArbjAZv4dwWYcliC-291">
          <mxGeometry y="31.77408159592791" width="45.05415162454873" height="38.1288979151135" as="geometry" />
        </mxCell>
        <mxCell id="MHLeArbjAZv4dwWYcliC-322" value="" style="group" vertex="1" connectable="0" parent="MHLeArbjAZv4dwWYcliC-296">
          <mxGeometry x="72.27436823104694" y="-56.58500218514615" width="104.18772563176897" height="87.12450191521631" as="geometry" />
        </mxCell>
        <mxCell id="MHLeArbjAZv4dwWYcliC-323" value="" style="group" vertex="1" connectable="0" parent="MHLeArbjAZv4dwWYcliC-322">
          <mxGeometry x="21.588447653429604" y="17.221522404174912" width="82.59927797833936" height="69.90297951104141" as="geometry" />
        </mxCell>
        <mxCell id="MHLeArbjAZv4dwWYcliC-324" value="" style="rhombus;whiteSpace=wrap;html=1;rounded=0;" vertex="1" parent="MHLeArbjAZv4dwWYcliC-323">
          <mxGeometry x="37.545126353790614" width="45.05415162454873" height="38.1288979151135" as="geometry" />
        </mxCell>
        <mxCell id="MHLeArbjAZv4dwWYcliC-325" value="" style="rhombus;whiteSpace=wrap;html=1;rounded=0;" vertex="1" parent="MHLeArbjAZv4dwWYcliC-323">
          <mxGeometry y="31.77408159592791" width="45.05415162454873" height="38.1288979151135" as="geometry" />
        </mxCell>
        <mxCell id="MHLeArbjAZv4dwWYcliC-327" value="" style="group" vertex="1" connectable="0" parent="MHLeArbjAZv4dwWYcliC-296">
          <mxGeometry x="51.62454873646212" y="-73.80652458932106" width="104.18772563176897" height="87.12450191521631" as="geometry" />
        </mxCell>
        <mxCell id="MHLeArbjAZv4dwWYcliC-328" value="" style="group" vertex="1" connectable="0" parent="MHLeArbjAZv4dwWYcliC-327">
          <mxGeometry x="21.588447653429604" y="17.221522404174912" width="82.59927797833936" height="69.90297951104141" as="geometry" />
        </mxCell>
        <mxCell id="MHLeArbjAZv4dwWYcliC-329" value="" style="rhombus;whiteSpace=wrap;html=1;rounded=0;" vertex="1" parent="MHLeArbjAZv4dwWYcliC-328">
          <mxGeometry x="37.545126353790614" width="45.05415162454873" height="38.1288979151135" as="geometry" />
        </mxCell>
        <mxCell id="MHLeArbjAZv4dwWYcliC-330" value="" style="rhombus;whiteSpace=wrap;html=1;rounded=0;fillColor=#60a917;strokeColor=#2D7600;fontColor=#ffffff;" vertex="1" parent="MHLeArbjAZv4dwWYcliC-328">
          <mxGeometry y="31.77408159592791" width="45.05415162454873" height="38.1288979151135" as="geometry" />
        </mxCell>
        <mxCell id="MHLeArbjAZv4dwWYcliC-300" value="" style="endArrow=none;html=1;entryX=0;entryY=1;entryDx=0;entryDy=0;exitX=1;exitY=1;exitDx=0;exitDy=0;" edge="1" parent="MHLeArbjAZv4dwWYcliC-340" source="MHLeArbjAZv4dwWYcliC-280" target="MHLeArbjAZv4dwWYcliC-255">
          <mxGeometry width="50" height="50" relative="1" as="geometry">
            <mxPoint x="137.03971119133575" y="94.00267359058074" as="sourcePoint" />
            <mxPoint x="233.71841155234654" y="159.6084732255328" as="targetPoint" />
          </mxGeometry>
        </mxCell>
        <mxCell id="MHLeArbjAZv4dwWYcliC-302" value="" style="endArrow=none;html=1;exitX=0;exitY=1;exitDx=0;exitDy=0;" edge="1" parent="MHLeArbjAZv4dwWYcliC-340" source="MHLeArbjAZv4dwWYcliC-280">
          <mxGeometry width="50" height="50" relative="1" as="geometry">
            <mxPoint x="186.7870036101083" y="198.971953006504" as="sourcePoint" />
            <mxPoint x="136.10108303249095" y="123.52528342630919" as="targetPoint" />
          </mxGeometry>
        </mxCell>
        <mxCell id="MHLeArbjAZv4dwWYcliC-279" value="" style="rhombus;whiteSpace=wrap;html=1;rounded=0;" vertex="1" parent="MHLeArbjAZv4dwWYcliC-340">
          <mxGeometry x="134.22382671480145" y="35.26311730378673" width="45.05415162454873" height="38.128897915113505" as="geometry" />
        </mxCell>
        <mxCell id="MHLeArbjAZv4dwWYcliC-326" value="" style="rhombus;whiteSpace=wrap;html=1;rounded=0;" vertex="1" parent="MHLeArbjAZv4dwWYcliC-340">
          <mxGeometry x="112.63537906137184" y="17.221522404174916" width="45.05415162454873" height="38.128897915113505" as="geometry" />
        </mxCell>
        <mxCell id="MHLeArbjAZv4dwWYcliC-331" value="" style="rhombus;whiteSpace=wrap;html=1;rounded=0;" vertex="1" parent="MHLeArbjAZv4dwWYcliC-340">
          <mxGeometry x="91.98555956678699" width="45.05415162454873" height="38.128897915113505" as="geometry" />
        </mxCell>
        <mxCell id="MHLeArbjAZv4dwWYcliC-332" value="" style="endArrow=none;html=1;entryX=0;entryY=0.5;entryDx=0;entryDy=0;exitX=0;exitY=0.5;exitDx=0;exitDy=0;" edge="1" parent="MHLeArbjAZv4dwWYcliC-340" source="MHLeArbjAZv4dwWYcliC-199" target="MHLeArbjAZv4dwWYcliC-330">
          <mxGeometry width="50" height="50" relative="1" as="geometry">
            <mxPoint x="218.70036101083033" y="187.49093807038741" as="sourcePoint" />
            <mxPoint x="265.63176895306856" y="146.48731329854238" as="targetPoint" />
          </mxGeometry>
        </mxCell>
        <mxCell id="MHLeArbjAZv4dwWYcliC-333" value="" style="endArrow=none;html=1;entryX=0.5;entryY=1;entryDx=0;entryDy=0;" edge="1" parent="MHLeArbjAZv4dwWYcliC-340" target="MHLeArbjAZv4dwWYcliC-330">
          <mxGeometry width="50" height="50" relative="1" as="geometry">
            <mxPoint x="137.03971119133575" y="290" as="sourcePoint" />
            <mxPoint x="265.63176895306856" y="146.48731329854238" as="targetPoint" />
          </mxGeometry>
        </mxCell>
      </root>
    </mxGraphModel>
  </diagram>
</mxfile>
